<!DOCTYPE svg PUBLIC "-//W3C//DTD SVG 20010904//EN" "http://www.w3.org/TR/2001/REC-SVG-20010904/DTD/svg10.dtd">
<svg version="1.0" xmlns="http://www.w3.org/2000/svg" width="393px" height="294px" viewBox="0 0 3930 2940" preserveAspectRatio="xMidYMid meet">
<g id="layer1" fill="#000000" stroke="none">
 <path d="M1647 2455 c-692 -122 -1263 -227 -1268 -232 -5 -5 -32 -346 -59 -758 -27 -412 -53 -752 -57 -755 -5 -4 -29 -15 -55 -25 -62 -23 -98 -73 -104 -146 -4 -48 0 -62 33 -124 l38 -70 65 1 c112 1 140 14 193 92 26 37 47 72 47 77 0 6 -25 48 -54 94 l-54 84 13 56 c7 31 41 191 75 356 35 165 66 303 69 307 3 4 59 -166 125 -378 65 -212 115 -388 112 -392 -4 -3 -33 -20 -64 -37 -67 -36 -76 -57 -67 -163 9 -108 14 -117 100 -159 l75 -37 84 41 c94 47 85 32 102 188 l6 60 -66 47 c-36 27 -66 54 -66 60 0 7 45 186 99 398 66 259 102 385 111 385 8 0 48 -124 116 -360 57 -198 104 -365 104 -372 0 -6 -17 -22 -37 -34 -21 -13 -59 -39 -86 -58 l-47 -35 1 -76 c0 -105 34 -174 104 -213 44 -24 57 -27 104 -21 81 9 90 14 175 108 l79 87 -22 77 c-13 42 -29 84 -38 94 -8 9 -39 26 -69 38 -30 12 -54 24 -54 25 0 15 329 766 336 767 5 0 78 -148 162 -328 l153 -329 -28 -22 c-15 -13 -31 -23 -35 -23 -4 0 -19 -23 -34 -52 -22 -44 -25 -59 -19 -107 13 -119 12 -117 85 -171 37 -27 71 -50 76 -50 26 0 208 87 219 105 7 11 20 61 30 112 l17 92 -36 60 c-35 58 -39 61 -85 67 -27 3 -54 10 -60 13 -9 6 20 114 99 382 62 206 115 377 118 381 6 6 137 -226 335 -589 l28 -52 -51 -32 c-27 -17 -55 -39 -60 -49 -6 -10 -10 -49 -10 -86 0 -61 3 -72 36 -120 35 -50 39 -53 98 -63 35 -6 69 -11 77 -11 17 0 169 150 169 167 0 7 -12 44 -26 83 -24 65 -31 73 -80 102 -51 31 -53 34 -48 68 2 19 22 194 44 389 21 195 43 358 48 363 11 11 14 8 275 -354 l185 -256 -43 -31 c-35 -25 -47 -42 -64 -93 -12 -34 -21 -85 -21 -113 0 -48 3 -53 55 -105 l55 -54 94 23 94 22 52 86 53 85 -13 56 c-17 80 -30 96 -99 122 -33 12 -65 27 -70 34 -5 6 -134 342 -286 746 -152 404 -282 741 -287 748 -6 6 -18 12 -27 11 -9 0 -582 -101 -1274 -224z"/>
 </g>

</svg>